<svg xmlns="http://www.w3.org/2000/svg" viewBox="0 0 1024 1024"><defs><clipPath id="r"><rect width="1024" height="1024" rx="225" ry="225"/></clipPath></defs><g clip-path="url(#r)"><rect width="1024" height="1024" fill="#ffffff"/><g transform="translate(173.31,167.07) scale(2.4995,2.4995)"><path d="M78.69,263.44C80.77,262.03 84.05,260.14 85.98,259.24C87.92,258.34 89.72,257.29 90.00,256.91C90.28,256.54 92.08,255.51 94.00,254.63C95.92,253.76 98.17,252.61 99.00,252.08C99.83,251.56 101.85,250.50 103.50,249.73C105.15,248.96 108.30,247.30 110.50,246.04C112.70,244.78 118.00,241.94 122.28,239.74C126.56,237.53 130.30,235.33 130.59,234.86C132.26,232.16 143.43,235.26 153.00,241.07C153.82,241.57 156.53,243.12 159.00,244.50C161.47,245.88 164.18,247.42 165.00,247.92C165.82,248.41 168.75,249.91 171.50,251.24C178.27,254.52 185.39,258.37 186.00,259.08C186.28,259.40 188.64,260.72 191.25,262.01C193.86,263.30 196.00,264.72 196.00,265.18C196.00,265.63 197.35,266.00 199.00,266.00C200.65,266.00 202.00,265.61 202.00,265.14C202.00,264.66 205.49,262.53 209.75,260.39C214.01,258.26 217.72,256.23 218.00,255.89C218.28,255.55 221.88,253.61 226.00,251.57C230.12,249.53 234.18,247.45 235.00,246.95C235.82,246.45 240.78,243.75 246.00,240.96C251.22,238.16 256.85,235.08 258.50,234.11L261.50,232.34L261.76,199.78C261.99,171.36 261.83,167.15 260.50,166.64C258.80,165.99 254.00,167.85 254.00,169.16C254.00,169.62 253.31,170.00 252.46,170.00C251.61,170.00 250.37,170.48 249.71,171.07C248.48,172.17 245.70,173.65 228.32,182.50C222.92,185.25 218.28,187.76 218.00,188.08C217.72,188.40 216.15,189.34 214.50,190.17C212.85,191.00 208.71,193.13 205.29,194.89L199.08,198.09L191.79,194.18C187.78,192.02 179.10,187.41 172.50,183.92C165.90,180.44 156.45,175.43 151.50,172.80C140.06,166.73 138.35,166.00 135.68,166.02C133.53,166.03 127.26,168.98 113.50,176.46C109.65,178.55 105.15,180.94 103.50,181.78C101.85,182.61 99.83,183.83 99.00,184.48C98.17,185.14 95.92,186.28 94.00,187.03C92.08,187.78 87.80,190.00 84.50,191.97C75.12,197.57 73.43,198.14 70.25,196.79C68.74,196.14 66.83,195.09 66.00,194.44C65.17,193.80 55.95,188.88 45.50,183.51C35.05,178.14 25.31,172.90 23.85,171.87C22.39,170.84 20.47,170.00 19.60,170.00C18.72,170.00 18.00,169.63 18.00,169.19C18.00,168.48 11.74,165.00 10.47,165.00C10.21,165.00 10.00,180.53 10.00,199.50L10.00,234.00L12.28,234.00C13.53,234.00 15.44,234.62 16.53,235.38C17.61,236.13 22.55,238.89 27.50,241.50C32.45,244.11 36.95,246.59 37.50,247.00C38.05,247.41 44.35,250.78 51.50,254.50C58.65,258.22 65.85,262.30 67.50,263.58C71.41,266.61 74.07,266.57 78.69,263.44zM210.50,182.86C215.45,180.03 224.22,175.28 230.00,172.30C235.78,169.32 242.53,165.74 245.00,164.35C247.47,162.95 252.04,160.50 255.15,158.89C258.25,157.29 261.07,155.27 261.40,154.41C261.73,153.54 262.00,138.52 262.00,121.03C262.00,85.98 262.08,86.41 255.99,90.34C251.76,93.08 231.82,103.78 222.00,108.59C217.88,110.61 212.59,113.53 210.26,115.09C207.93,116.64 204.13,118.56 201.81,119.34C197.81,120.69 197.39,120.64 193.74,118.34C191.63,117.00 184.28,113.05 177.43,109.56C170.57,106.07 164.40,102.77 163.73,102.23C163.05,101.69 156.57,98.19 149.33,94.45L136.16,87.66L131.33,90.12C128.67,91.47 122.22,94.86 117.00,97.66C111.78,100.45 105.92,103.54 104.00,104.53C102.08,105.53 99.83,106.71 99.00,107.17C98.17,107.64 95.92,108.78 94.00,109.73C87.44,112.94 74.50,120.46 73.77,121.48C73.36,122.04 73.02,137.01 73.02,154.75C73.00,185.80 73.07,187.00 74.90,187.00C76.64,187.00 90.23,180.29 97.50,175.84C99.15,174.83 101.74,173.51 103.25,172.90C104.76,172.30 106.00,171.40 106.00,170.90C106.00,170.41 106.67,170.00 107.48,170.00C108.73,170.00 113.99,167.25 121.00,162.92C121.83,162.41 125.17,160.65 128.43,159.00C134.45,155.95 137.84,155.30 139.55,156.87C140.07,157.34 147.25,161.22 155.50,165.49C163.75,169.75 173.65,175.08 177.50,177.32C184.55,181.43 198.64,187.97 200.50,187.99C201.05,187.99 205.55,185.68 210.50,182.86zM206.59,107.50C209.18,106.13 211.79,104.64 212.40,104.19C213.00,103.75 215.53,102.52 218.00,101.48C220.47,100.43 223.85,98.61 225.50,97.43C227.15,96.25 229.85,94.62 231.50,93.81C243.54,87.90 252.26,83.24 256.75,80.31L262.00,76.89L261.98,45.20C261.98,27.76 261.60,12.91 261.14,12.20C260.51,11.20 257.51,12.35 248.41,17.09C241.86,20.50 233.50,25.03 229.83,27.15C226.15,29.27 222.86,31.00 222.50,31.00C222.15,31.00 217.55,33.48 212.28,36.50C207.01,39.52 202.14,42.00 201.46,42.00C200.77,42.00 199.94,42.71 199.61,43.58C198.78,45.75 198.83,108.50 199.67,109.33C200.72,110.39 201.60,110.16 206.59,107.50z" fill="#0f172a" fill-rule="evenodd"/></g></g></svg>